<svg width="70" height="48" viewBox="0 0 70 48" fill="none" xmlns="http://www.w3.org/2000/svg">
<path d="M37.5389 4.20966L25.1956 24.6085L38.3617 46.2448C38.4442 46.4098 38.4853 46.5748 38.4442 46.7394C38.4032 46.904 38.2384 46.779 37.9916 46.8221H28.5696C27.9112 46.8221 27.4585 46.7825 27.1706 46.3687C26.3063 44.6378 25.4014 42.948 24.5372 41.2171C23.6734 39.5273 22.727 37.7963 21.7395 36.0243C20.752 34.2522 19.7646 32.4797 18.7771 30.6665H18.695C17.8307 32.4386 16.8843 34.2111 15.938 35.9831C14.9916 37.7552 14.0456 39.5273 13.1403 41.2582C12.1923 42.9891 11.2475 44.7612 10.3015 46.451C10.1368 46.8632 9.80779 46.9044 9.35356 46.9044H0.303261C0.138552 46.9044 0.0153167 46.9867 0.0153167 46.7805C-0.00281247 46.7037 -0.00487239 46.6239 0.00926642 46.5462C0.0234052 46.4685 0.053437 46.3946 0.0974736 46.3291L12.895 25.3107L0.426891 4.16852C0.303261 4.00353 0.262182 3.83737 0.344339 3.75824C0.426891 3.6348 0.591205 3.59365 0.755914 3.59365H10.0957C10.2903 3.5979 10.4836 3.62552 10.6716 3.67594C10.8363 3.75824 10.9596 3.88207 11.0832 4.04705C11.8649 5.81913 12.7702 7.5912 13.7162 9.36327C14.7036 11.1353 15.6516 12.8663 16.6786 14.5972C17.666 16.3281 18.5713 18.059 19.4356 19.8311H19.5177C20.3804 18.0159 21.2888 16.2438 22.1922 14.5129C23.0955 12.782 24.0435 11.0511 24.9898 9.32015C25.9362 7.58922 26.8415 5.81557 27.7464 4.12737C27.7859 3.96239 27.8701 3.7978 27.9933 3.71511C28.1562 3.62515 28.3457 3.59599 28.5281 3.63282H37.2099C37.2585 3.62197 37.3088 3.62082 37.3578 3.62945C37.4069 3.63808 37.4537 3.65631 37.4957 3.6831C37.5377 3.70989 37.5741 3.74471 37.6026 3.78557C37.6312 3.82643 37.6514 3.87254 37.6622 3.92124C37.7036 3.96081 37.6227 4.12737 37.5389 4.20966ZM56.5476 47.6905C53.503 47.7301 50.4581 47.1137 47.6999 45.8362C45.108 44.6409 42.9684 42.6627 41.4872 40.2311C39.9649 37.7172 39.2243 34.5849 39.2243 30.8347C39.1827 27.7848 39.9645 24.7803 41.4872 22.1389C43.0505 19.46 45.3134 17.2329 48.0289 15.7509C50.9092 14.1434 54.3653 13.3604 58.4388 13.3604C58.7272 13.3566 59.0157 13.3698 59.3026 13.4C59.6731 13.4415 60.0843 13.4415 60.578 13.4827V0.45939C60.578 0.170968 60.7016 0.0059861 60.9896 0.0059861H69.3419C69.5477 -0.0335779 69.712 0.129821 69.7531 0.294408V39.6111C69.7531 40.353 69.7926 41.1775 69.8357 42.0839C69.9178 42.9496 69.9589 43.7737 70 44.4744C70 44.7628 69.8768 45.0101 69.5888 45.1339C67.4337 46.0409 65.1843 46.7044 62.8824 47.1121C60.7838 47.4828 58.6856 47.6889 56.546 47.6889L56.5476 47.6905ZM60.5796 39.445V21.3128C60.2095 21.2305 59.839 21.1482 59.4689 21.1071C59.0162 21.0675 58.5636 21.0244 58.1109 21.0244C56.5065 21.0244 54.9017 21.3543 53.4616 22.0962C52.0558 22.7979 50.8522 23.8476 49.9648 25.1458C49.0599 26.4644 48.6072 28.2365 48.6072 30.3797C48.5713 31.8261 48.8087 33.2663 49.3067 34.6245C49.7179 35.7374 50.3337 36.7265 51.158 37.5522C51.9509 38.3097 52.9078 38.8734 53.9541 39.1993C55.0563 39.5607 56.2094 39.7416 57.3692 39.735C57.9865 39.735 58.5624 39.6954 59.0972 39.6527C59.632 39.6923 60.0847 39.6131 60.5784 39.4466L60.5796 39.445Z" fill="white"/>
</svg>
