<svg width="78" height="88" viewBox="0 0 78 88" fill="none" xmlns="http://www.w3.org/2000/svg">
<path d="M4.96848 54.2612H12.4281C14.7193 54.2612 17.0141 54.3026 19.3191 54.2439C20.2804 54.2163 20.5492 54.5547 20.6181 55.4906C20.88 59.0615 21.259 62.6255 21.5484 66.1964C21.6138 67.0011 21.8929 67.3672 22.7164 67.5778C27.8503 68.9247 32.9669 70.3406 38.1007 71.722C38.6743 71.8653 39.2741 71.8653 39.8476 71.722C45.0228 70.3406 50.1911 68.9327 55.3525 67.4984C55.7901 67.3741 56.3862 66.825 56.431 66.4175C57.2476 59.545 57.9883 52.6588 58.7567 45.6965H4.08985L2.55315 30.9812C3.24226 30.9812 3.78321 30.9812 4.32071 30.9812C22.3363 30.7648 40.353 30.5553 58.3708 30.3527C59.7077 30.3527 60.159 30.0073 60.2245 28.626C60.4278 24.2711 60.8171 19.9197 61.1341 15.5683C61.1548 15.2575 61.1617 14.9467 61.1789 14.5806H1.00611C0.661558 9.74575 0.337662 4.91086 0 0H78C77.7106 3.37406 77.4349 6.66177 77.1421 9.94604C76.3542 18.8215 75.5617 27.697 74.7646 36.5724C73.8895 46.3619 73.012 56.1468 72.1322 65.9271C71.7877 69.9538 71.4018 73.9806 71.0779 78.0143C71.0021 78.9433 70.7334 79.4198 69.6997 79.6927C59.7594 82.3864 49.8431 85.163 39.9062 87.8809C39.2985 88.0397 38.6602 88.0397 38.0525 87.8809C28.119 85.1561 18.2028 82.3795 8.26583 79.665C7.35966 79.4164 7.02201 79.0503 6.94276 78.1179C6.29155 70.5202 5.58865 62.9225 4.90644 55.3249C4.90589 54.9694 4.92662 54.6142 4.96848 54.2612Z" fill="white"/>
</svg>
