<svg width="18" height="18" viewBox="0 0 18 18" fill="currentColor" xmlns="http://www.w3.org/2000/svg">
<path d="M9 18C6.5 18 4.375 17.125 2.625 15.375C0.875 13.625 0 11.5 0 9C0 6.5 0.875 4.375 2.625 2.625C4.375 0.875 6.5 0 9 0C9.13333 0 9.275 0.00416667 9.425 0.0125C9.575 0.0208333 9.76667 0.0333333 10 0.05C9.4 0.583333 8.93333 1.24167 8.6 2.025C8.26667 2.80833 8.1 3.63333 8.1 4.5C8.1 6 8.625 7.275 9.675 8.325C10.725 9.375 12 9.9 13.5 9.9C14.3667 9.9 15.1917 9.74583 15.975 9.4375C16.7583 9.12917 17.4167 8.7 17.95 8.15C17.9667 8.35 17.9792 8.5125 17.9875 8.6375C17.9958 8.7625 18 8.88333 18 9C18 11.5 17.125 13.625 15.375 15.375C13.625 17.125 11.5 18 9 18ZM9 16.5C10.8167 16.5 12.4 15.9375 13.75 14.8125C15.1 13.6875 15.9417 12.3667 16.275 10.85C15.8583 11.0333 15.4111 11.1708 14.9333 11.2625C14.4556 11.3542 13.9778 11.4 13.5 11.4C11.5885 11.4 9.96064 10.7279 8.61637 9.38363C7.27213 8.03936 6.6 6.41148 6.6 4.5C6.6 4.1 6.64167 3.67083 6.725 3.2125C6.80833 2.75417 6.95833 2.23333 7.175 1.65C5.54167 2.1 4.1875 3.0125 3.1125 4.3875C2.0375 5.7625 1.5 7.3 1.5 9C1.5 11.0833 2.22917 12.8542 3.6875 14.3125C5.14583 15.7708 6.91667 16.5 9 16.5Z"/>
</svg>
