<svg width="62" height="88" viewBox="0 0 62 88" fill="none" xmlns="http://www.w3.org/2000/svg">
<path d="M46.4471 0.00459062C47.553 0.266256 48.6957 0.429223 49.7626 0.803358C55.9896 2.98849 59.89 7.32893 60.9638 13.8315C62.0376 20.3342 59.6698 25.6822 54.4638 29.7449C54.2848 29.8872 54.0967 30.0181 53.8351 30.204C58.5845 33.6469 61.1909 38.2238 61.2047 44.1113C61.2376 47.9334 59.877 51.6364 57.3777 54.5274C54.3491 58.1218 50.4509 60.0912 45.768 60.4148C41.1425 60.7339 37.0493 59.3521 33.3508 56.203V57.3139C33.3508 61.9527 33.3783 66.5938 33.3508 71.2326C33.2934 79.117 28.1333 85.6265 20.4884 87.5294C12.9398 89.4 4.93695 85.5554 1.61696 78.4629C0.0188302 75.0331 -0.347383 71.1566 0.580168 67.488C1.50772 63.8194 3.6722 60.5833 6.70821 58.3261C6.93765 58.1563 7.1671 57.991 7.46308 57.7707C2.73662 54.3736 0.102628 49.8404 0.0957453 44.0195C0.0888621 38.1985 2.69303 33.6515 7.34836 30.3027C6.23557 29.2468 5.02642 28.3104 4.07425 27.1627C-0.00748245 22.2438 -1.1042 16.6617 1.15578 10.6893C3.43641 4.66407 7.97244 1.17749 14.3577 0.15149C14.5213 0.113535 14.6816 0.0628848 14.8372 0L46.4471 0.00459062ZM27.8832 5.45595C27.6538 5.4307 27.4519 5.39168 27.2568 5.39168C23.65 5.39168 20.0433 5.39168 16.4365 5.39168C15.8059 5.39252 15.1767 5.45246 14.5573 5.57072C8.74563 6.68853 4.98515 11.7543 5.5381 17.6991C6.04746 23.2079 10.8726 27.4863 16.6063 27.5116C19.8712 27.5254 23.1338 27.5116 26.3987 27.5116H27.8832V5.45595ZM33.3898 27.5208H34.3075C37.7147 27.5208 41.1219 27.5208 44.5268 27.5208C45.2699 27.5229 46.012 27.4638 46.7454 27.344C52.0225 26.4512 56.0217 21.53 55.8221 16.2255C55.6087 10.586 51.3939 5.86452 45.9172 5.5294C41.8102 5.27692 37.678 5.44448 33.5572 5.4307C33.5113 5.4307 33.4632 5.48809 33.3806 5.54317L33.3898 27.5208ZM27.8832 55.0507V32.9882C27.6538 32.9698 27.4496 32.9446 27.2568 32.9446C23.6523 32.9446 20.0456 32.9216 16.4388 32.9584C15.5532 32.9639 14.6714 33.074 13.8117 33.2866C8.32805 34.6638 4.93463 39.7135 5.55183 45.4907C6.11625 50.7034 10.8037 54.9268 16.2506 55.0346C19.7679 55.1035 23.2898 55.0507 26.8048 55.0507H27.8832ZM27.8832 60.5595C27.7889 60.5249 27.6912 60.5003 27.5918 60.486C23.5858 60.486 19.5775 60.3735 15.5784 60.5342C9.78962 60.7637 4.99892 66.3804 5.48304 72.16C5.96716 78.0428 10.3449 82.2869 16.2667 82.6013C22.0027 82.9043 27.5344 78.2402 27.8579 72.5456C28.0667 68.577 27.8855 64.59 27.8855 60.5526L27.8832 60.5595ZM44.6323 32.9492C38.3227 32.9331 33.3691 37.7808 33.36 43.9781C33.3508 50.1755 38.2561 55.0278 44.4969 55.0576C50.8294 55.0874 55.8588 50.1778 55.8381 43.9827C55.8152 37.8336 50.8639 32.9584 44.6277 32.9423L44.6323 32.9492Z" fill="white"/>
</svg>
