<svg width="88" height="88" viewBox="0 0 88 88" fill="none" xmlns="http://www.w3.org/2000/svg">
<g clip-path="url(#clip0_11_1049)">
<mask id="mask0_11_1049" style="mask-type:luminance" maskUnits="userSpaceOnUse" x="0" y="0" width="88" height="88">
<path d="M0 0.108093H87.8919V88H0V0.108093Z" fill="white"/>
</mask>
<g mask="url(#mask0_11_1049)">
<path d="M86.2361 40.1405L47.8605 1.76775C47.3351 1.24172 46.7113 0.824413 46.0246 0.53969C45.3379 0.254966 44.6018 0.108414 43.8584 0.108414C43.115 0.108414 42.3789 0.254966 41.6921 0.53969C41.0054 0.824413 40.3816 1.24172 39.8563 1.76775L31.8865 9.73749L41.9931 19.8441C43.1814 19.4406 44.4588 19.3776 45.6809 19.6622C46.9031 19.9469 48.0212 20.5678 48.9088 21.4549C49.8011 22.3485 50.4243 23.4749 50.7073 24.7057C50.9902 25.9364 50.9215 27.2219 50.5091 28.4155L60.2493 38.1567C61.4427 37.742 62.7288 37.672 63.9602 37.9549C65.1915 38.2378 66.3181 38.862 67.2109 39.756C67.8363 40.3813 68.3325 41.1237 68.6709 41.9408C69.0094 42.7579 69.1836 43.6336 69.1836 44.5181C69.1836 45.4025 69.0094 46.2782 68.6709 47.0953C68.3325 47.9124 67.8363 48.6548 67.2109 49.2801C65.9472 50.5432 64.2336 51.2528 62.4469 51.2528C60.6602 51.2528 58.9466 50.5432 57.683 49.2801C56.7424 48.3401 56.1012 47.1426 55.8404 45.8386C55.5796 44.5346 55.7109 43.1826 56.2176 41.9531L47.1306 32.869V56.7792C48.0897 57.253 48.9222 57.9485 49.559 58.808C50.1958 59.6676 50.6187 60.6665 50.7926 61.722C50.9665 62.7776 50.8864 63.8593 50.559 64.8778C50.2315 65.8962 49.6662 66.8219 48.9098 67.5784C48.2844 68.2038 47.542 68.6999 46.725 69.0384C45.9079 69.3769 45.0321 69.5511 44.1477 69.5511C43.2633 69.5511 42.3875 69.3769 41.5705 69.0384C40.7534 68.6999 40.011 68.2038 39.3857 67.5784C38.7601 66.953 38.2638 66.2106 37.9253 65.3934C37.5867 64.5762 37.4124 63.7004 37.4124 62.8158C37.4124 61.9313 37.5867 61.0554 37.9253 60.2383C38.2638 59.4211 38.7601 58.6786 39.3857 58.0533C40.0165 57.4209 40.767 56.9205 41.5933 56.5812V32.451C40.7669 32.1137 40.0163 31.6145 39.3857 30.9828C38.4412 30.0371 37.7991 28.832 37.5409 27.5206C37.2827 26.2093 37.4201 24.8507 37.9356 23.6176L27.9705 13.6525L1.65854 39.9607C1.13266 40.4864 0.715488 41.1105 0.430869 41.7974C0.14625 42.4844 -0.000244141 43.2207 -0.000244141 43.9642C-0.000244141 44.7078 0.14625 45.4441 0.430869 46.131C0.715488 46.8179 1.13266 47.4421 1.65854 47.9677L40.0351 86.3453C41.0969 87.406 42.5364 88.0019 44.0372 88.0019C45.5381 88.0019 46.9775 87.406 48.0393 86.3453L86.2361 48.1476C87.2965 47.0851 87.8921 45.6452 87.8921 44.1441C87.8921 42.6429 87.2965 41.203 86.2361 40.1405Z" fill="white"/>
</g>
</g>
<defs>
<clipPath id="clip0_11_1049">
<rect width="88" height="88" fill="white"/>
</clipPath>
</defs>
</svg>
