<svg width="24" height="24" viewBox="0 0 24 24" fill="none" xmlns="http://www.w3.org/2000/svg">
<path d="M12 0C5.37321 0 0 5.5125 0 12.3054C0 17.7429 3.43929 22.35 8.20714 23.9786C8.27402 23.9931 8.34228 24.0003 8.41071 24C8.85536 24 9.02679 23.6732 9.02679 23.3893C9.02679 23.0946 9.01607 22.3232 9.01071 21.2946C8.61377 21.3877 8.20769 21.4362 7.8 21.4393C5.49107 21.4393 4.96607 19.6446 4.96607 19.6446C4.41964 18.225 3.63214 17.8446 3.63214 17.8446C2.5875 17.1107 3.62679 17.0893 3.70714 17.0893H3.7125C4.91786 17.1964 5.55 18.3643 5.55 18.3643C6.15 19.4143 6.95357 19.7089 7.67143 19.7089C8.14609 19.6994 8.61341 19.5899 9.04286 19.3875C9.15 18.5946 9.46071 18.0536 9.80357 17.7429C7.14107 17.4321 4.33929 16.3768 4.33929 11.6625C4.33929 10.3179 4.80536 9.21964 5.57143 8.3625C5.44821 8.05178 5.03571 6.79821 5.68929 5.10536C5.77695 5.08438 5.86706 5.07537 5.95714 5.07857C6.39107 5.07857 7.37143 5.24464 8.98929 6.36964C10.9551 5.81963 13.0342 5.81963 15 6.36964C16.6179 5.24464 17.5982 5.07857 18.0321 5.07857C18.1222 5.07537 18.2123 5.08438 18.3 5.10536C18.9536 6.79821 18.5411 8.05178 18.4179 8.3625C19.1839 9.225 19.65 10.3232 19.65 11.6625C19.65 16.3875 16.8429 17.4268 14.1696 17.7321C14.5982 18.1125 14.9839 18.8625 14.9839 20.0089C14.9839 21.6536 14.9679 22.9821 14.9679 23.3839C14.9679 23.6732 15.1339 24 15.5786 24C15.6505 24.0003 15.7224 23.9931 15.7929 23.9786C20.5661 22.35 24 17.7375 24 12.3054C24 5.5125 18.6268 0 12 0Z" fill="white"/>
</svg>
