<svg width="72" height="88" viewBox="0 0 72 88" fill="none" xmlns="http://www.w3.org/2000/svg">
<path d="M4.51916 63.1932H19.3351C19.4312 64.2966 19.4808 65.3939 19.6451 66.4666C19.6848 66.6626 19.7681 66.8473 19.8887 67.0073C20.0094 67.1672 20.1644 67.2984 20.3425 67.3913C25.3659 69.0989 30.4027 70.7695 35.4529 72.4031C35.8876 72.5043 36.3427 72.4753 36.7609 72.3198C41.6552 70.7325 46.5432 69.1328 51.4157 67.4868C51.7877 67.3635 52.2836 66.9104 52.3115 66.5806C52.795 60.5732 53.2166 54.5597 53.6598 48.4136H3.40953C2.26889 32.2254 1.13754 16.1666 0 0H72C71.6528 4.85769 71.3119 9.70305 70.9585 14.6501H15.9659C16.4122 20.9966 16.8524 27.229 17.2987 33.5877H69.635C69.4336 36.4943 69.2476 39.2622 69.0492 42.0271C68.5099 49.552 67.9664 57.0759 67.4188 64.5987C67.1089 68.7691 66.7989 72.9394 66.5261 77.1097C66.4796 77.8433 66.2162 78.1639 65.5219 78.3889C55.9504 81.5482 46.3913 84.7384 36.8198 87.8854C36.2777 88.0443 35.7 88.0378 35.1616 87.8669C25.586 84.7189 16.0217 81.5431 6.46881 78.3396C6.09686 78.2163 5.60092 77.7663 5.57303 77.4364C5.17318 72.736 4.86012 68.0355 4.51916 63.1932Z" fill="white"/>
</svg>
