<svg width="70" height="58" viewBox="0 0 70 58" fill="none" xmlns="http://www.w3.org/2000/svg">
<path d="M50.4604 57.7618C46.1138 57.7618 41.8562 57.7618 37.5986 57.7231C37.3238 57.7231 36.9135 57.2044 36.8245 56.8522C35.551 52.761 34.3008 48.6582 33.1126 44.5438C32.8803 43.7504 32.5591 43.5065 31.7385 43.5143C27.1597 43.5568 22.5808 43.5143 18.002 43.5143H16.9066C15.8925 47.1642 14.8977 50.7445 13.8991 54.3247C13.6437 55.2459 13.4231 56.1787 13.1018 57.0767C13.0353 57.2344 12.9327 57.3743 12.8023 57.4852C12.6719 57.5961 12.5173 57.675 12.3509 57.7153C8.34101 57.7502 4.33113 57.7153 0.321239 57.7153C0.25931 57.7153 0.197398 57.6573 0 57.5605C5.62005 39.1728 11.2504 20.7567 16.8911 2.31221C17.162 2.28899 17.402 2.25415 17.6381 2.25415C22.5731 2.25415 27.5041 2.25415 32.4391 2.25415C33.0158 2.25415 33.3912 2.30834 33.6003 2.9973C39.1945 21.1012 44.8042 39.1999 50.4294 57.2934C50.4509 57.4486 50.4612 57.6051 50.4604 57.7618ZM24.6322 11.9073C22.7124 19.2201 20.7771 26.6167 18.8264 34.0972H30.8831C28.7646 26.6244 26.681 19.2278 24.6322 11.9073Z" fill="white"/>
<path d="M57.1604 17.5893H69.6081V18.6924C69.6081 31.3156 69.6158 43.9362 69.6313 56.5542C69.6313 57.5605 69.3255 57.7927 68.3734 57.7772C65.006 57.7231 61.6348 57.7579 58.2674 57.7579H57.1604V17.5893Z" fill="white"/>
<path d="M63.2138 12.5576C59.4168 12.5227 56.7268 9.91787 56.7423 6.29503C56.7423 2.55994 59.5523 -0.0720373 63.419 0.00150326C67.2856 0.0750438 70.0608 2.77282 69.9989 6.44598C69.8944 10.0456 67.0844 12.5885 63.2138 12.5576Z" fill="white"/>
</svg>
