<svg width="80" height="88" viewBox="0 0 80 88" fill="none" xmlns="http://www.w3.org/2000/svg">
<path d="M42.7671 0.00405884H79.7839C79.448 3.73933 79.1245 7.37632 78.7887 11.1321H53.9851V39.208H76.2289C75.9258 42.5993 75.6473 45.8144 75.3565 49.0377C74.6029 57.3246 73.8479 65.6075 73.0915 73.8863C72.8704 76.3437 72.6287 78.7642 72.4239 81.2094C72.3707 81.8483 72.1823 82.2169 71.4697 82.3561C62.2462 84.1746 53.0254 86.0109 43.8074 87.8648C43.5125 87.9222 43.2094 87.9303 42.7916 87.9795V76.6303L50.7741 74.9921C54.2063 74.304 57.6426 73.6405 61.0584 72.8951C61.277 72.8248 61.4751 72.7022 61.6357 72.5381C61.7963 72.3739 61.9144 72.1731 61.9799 71.9531C62.6516 65.0723 63.2619 58.1834 63.8844 51.2944C63.9049 51.0364 63.8844 50.7784 63.8844 50.377H42.7671V0.00405884Z" fill="white"/>
<path d="M0 61.6811H11.2058C11.4065 63.7617 11.6154 65.8382 11.812 67.9147C11.9673 69.0003 12.0534 70.0947 12.07 71.1913C12.0331 72.42 12.4796 72.9688 13.7083 73.149C15.8585 73.4562 17.9883 73.9436 20.2614 74.3777V0H31.3566V88C29.6814 87.6846 28.0268 87.3897 26.3804 87.0621C18.5289 85.4975 10.6857 83.9125 2.83424 82.3766C2.0151 82.2169 1.7816 81.8401 1.71607 81.0865C1.25326 75.7621 0.757675 70.4377 0.278479 65.1133C0.196565 64.0074 0.102392 62.8852 0 61.6811Z" fill="white"/>
</svg>
