<svg width="74" height="88" viewBox="0 0 74 88" fill="none" xmlns="http://www.w3.org/2000/svg">
<path d="M23.6039 68.0576C23.6039 68.0576 19.8065 70.0131 26.3066 70.6752C34.1815 71.4707 38.2062 71.3568 46.882 69.9022C46.882 69.9022 49.1639 71.1694 52.3499 72.2663C32.8965 79.6494 8.32246 71.8387 23.6022 68.0576M21.2259 58.4228C21.2259 58.4228 16.9665 61.2149 23.4712 61.8102C31.8834 62.5801 38.5267 62.6417 50.0217 60.6811C50.0217 60.6811 51.6115 62.1084 54.1119 62.8881C30.5909 68.9789 4.39341 63.3685 21.2259 58.4228Z" fill="white"/>
<path d="M41.2671 42.0771C46.0604 46.9643 40.0077 51.3624 40.0077 51.3624C40.0077 51.3624 52.1791 45.7982 46.5889 38.8308C41.3686 32.335 37.3653 29.1051 59.0386 17.9742C59.0386 17.9742 25.0166 25.498 41.2671 42.0771Z" fill="white"/>
<path d="M66.9951 75.1815C66.9951 75.1815 69.8056 77.2345 63.9001 78.8184C52.6717 81.8307 17.1648 82.7407 7.30134 78.939C3.7554 77.5728 10.4045 75.6768 12.4962 75.279C14.6778 74.8602 15.9239 74.9382 15.9239 74.9382C11.9827 72.4787 -9.56301 79.7685 4.98066 81.8564C44.6444 87.5535 77.284 79.2901 66.9969 75.1841M25.4315 48.4435C25.4315 48.4435 7.37031 52.2416 19.0357 53.6217C23.9623 54.2058 33.7799 54.0734 42.9253 53.3949C50.402 52.8364 57.9054 51.6498 57.9054 51.6498C57.9054 51.6498 55.27 52.6491 53.3632 53.8019C35.0214 58.0686 -0.411276 56.0812 9.78952 51.7119C18.4156 48.0196 25.4292 48.4384 25.4292 48.4384M57.8283 64.4755C76.4726 55.896 67.8552 47.651 61.8356 48.7622C60.3605 49.0343 59.7033 49.2693 59.7033 49.2693C60.0982 48.7727 60.6534 48.3934 61.296 48.1812C73.1996 44.4755 82.3537 59.1136 57.4533 64.9082C57.4533 64.9082 57.7431 64.6798 57.8283 64.4755Z" fill="white"/>
<path d="M46.5889 0C46.5889 0 56.9143 9.14671 36.7938 23.2119C20.6603 34.4943 33.1146 40.9274 36.7869 48.2772C27.3726 40.7524 20.4615 34.1314 25.0977 27.9652C31.9026 18.9165 50.755 14.5292 46.5889 0Z" fill="white"/>
<path d="M27.2624 87.7234C45.1584 88.7381 72.6397 87.1588 73.2906 79.6622C73.2906 79.6622 72.0398 82.5046 58.5006 84.7624C43.2261 87.3077 24.3865 87.011 13.2131 85.3783C13.2131 85.3783 15.5008 87.0546 27.2624 87.7224" fill="white"/>
</svg>
