<svg width="70" height="58" viewBox="0 0 70 58" fill="none" xmlns="http://www.w3.org/2000/svg">
<path d="M12.0483 46.1521H25.3201C29.0425 46.1521 32.762 46.176 36.4885 46.1352C37.4546 46.1254 37.7747 46.416 37.602 47.3903C37.089 50.2589 36.6088 53.1336 36.1614 56.0144C36.0308 56.8567 35.625 57.1375 34.8036 57.1375C23.637 57.1225 12.4696 57.1225 1.30115 57.1375C0.270518 57.1375 -0.018733 56.67 0.000924722 55.742C0.0332196 54.1781 0.00934913 52.6128 0.00934913 51.0474C0.00934913 34.637 0.00934913 18.2265 0.00934913 1.81598C0.00934913 0.0569133 0.0318165 0.0330442 1.76591 0.0316403C4.68509 0.0316403 7.60567 0.0906004 10.522 0.0021556C11.7857 -0.0357493 12.0666 0.423324 12.0666 1.61101C12.0329 15.8642 12.0259 30.1178 12.0455 44.372L12.0483 46.1521Z" fill="white"/>
<path d="M55.433 19.022C57.2471 17.7009 59.043 16.2367 60.9906 15.0139C63.2512 13.5932 65.825 13.0653 68.4844 12.9151C69.5599 12.8561 70.0191 13.1959 69.9994 14.3344C69.9475 17.423 69.9545 20.5115 69.9994 23.6001C70.0134 24.5982 69.654 24.9324 68.6641 24.8888C65.4398 24.7543 62.226 25.3399 59.2565 26.603C58.9068 26.7434 58.5684 26.9245 58.2216 27.0803C56.5816 27.823 55.8346 28.9054 55.8599 30.8905C56.0003 39.0976 55.8894 47.3075 55.9441 55.516C55.9525 56.8118 55.5734 57.1922 54.2915 57.1529C51.3751 57.0645 48.4517 57.1263 45.5325 57.1235C43.8476 57.1235 43.8083 57.094 43.8069 55.4388C43.8069 47.3987 43.856 39.3587 43.7886 31.3186C43.7423 25.8645 43.5569 20.4104 43.3674 14.9578C43.3351 14.0143 43.6271 13.7995 44.4907 13.8122C47.2414 13.8529 49.9934 13.8782 52.7427 13.8052C53.9601 13.7715 54.5807 14.3358 54.8124 15.3958C55.0862 16.6312 55.2449 17.8891 55.433 19.022Z" fill="white"/>
</svg>
