<svg width="90" height="88" viewBox="0 0 90 88" fill="none" xmlns="http://www.w3.org/2000/svg">
<path d="M82.5675 68.0626C77.6905 67.943 73.9094 68.43 70.7393 69.7716C69.825 70.1369 68.3616 70.1369 68.2399 71.2947C68.7269 71.7839 68.7889 72.5764 69.2161 73.2451C69.9467 74.4649 71.2263 76.1119 72.3863 76.9664C73.668 77.9405 74.9497 78.9168 76.287 79.7691C78.6646 81.2324 81.3477 82.0869 83.6656 83.5502C85.0071 84.4047 86.3465 85.5006 87.688 86.4149C88.3588 86.902 88.7861 87.6967 89.6406 88V87.8184C89.2133 87.2694 89.0894 86.4769 88.6643 85.8659C88.0555 85.2571 87.4445 84.7081 86.8357 84.0993C85.0508 81.7339 82.9131 79.6568 80.4975 77.9405C78.545 76.5989 74.2768 74.7704 73.4843 72.5145L73.3625 72.3927C74.7041 72.271 76.2892 71.7839 77.5709 71.4165C79.643 70.8675 81.5336 70.9892 83.6677 70.4424C84.6418 70.1967 85.6181 69.8933 86.5922 69.5879V69.0389C85.4963 67.943 84.7038 66.4754 83.5459 65.4415C80.3905 62.6862 77.0266 60.1793 73.4843 57.9433C71.5959 56.7235 69.1563 55.931 67.144 54.8949C66.4134 54.5296 65.1936 54.3459 64.7664 53.7371C63.6683 52.3955 63.0574 50.6267 62.267 49.0374C60.5003 45.6835 58.7913 41.9643 57.2682 38.4289C56.1702 36.0513 55.4994 33.6737 54.1579 31.4797C47.8795 21.1148 41.05 14.8343 30.5633 8.67769C28.3074 7.39596 25.6243 6.84696 22.7596 6.17832C21.2365 6.11637 19.7113 5.9946 18.1881 5.93265C17.2119 5.5054 16.2356 4.34757 15.3833 3.79642C11.9076 1.60252 2.94616 -3.15271 0.384829 3.12779C-1.2622 7.09048 2.8244 10.9912 4.23003 13.0035C5.2661 14.4049 6.60765 15.9943 7.34038 17.5772C7.76762 18.6111 7.88725 19.7134 8.31449 20.8072C9.29075 23.4903 10.2051 26.4767 11.4847 28.9782C12.1418 30.2921 12.8959 31.5553 13.7405 32.7572C14.2297 33.428 15.0821 33.7335 15.2658 34.8294C14.4113 36.0491 14.3515 37.8778 13.8623 39.403C11.6684 46.2924 12.5229 54.8266 15.6311 59.8873C16.6052 61.4104 18.923 64.7664 22.0397 63.4847C24.7826 62.3867 24.176 58.9132 24.9642 55.8648C25.1479 55.132 25.0262 54.645 25.3915 54.1558V54.2797C26.246 55.9887 27.1004 57.6314 27.8909 59.3383C29.7814 62.329 33.0733 65.4351 35.8184 67.5093C37.2817 68.6052 38.4395 70.5 40.2681 71.1665V70.9828H40.1464C39.7811 70.436 39.2321 70.1903 38.745 69.7652C37.5897 68.6344 36.5295 67.4105 35.5749 66.1058C32.9918 62.6037 30.7052 58.8923 28.7389 55.0103C27.7648 53.1197 26.9103 51.0476 26.1178 49.157C25.7504 48.4243 25.7504 47.3284 25.1415 46.9631C24.2272 48.3047 22.8857 49.4625 22.2149 51.1074C21.0571 53.7307 20.9332 56.9607 20.5059 60.3145C20.2624 60.3765 20.3842 60.3145 20.2624 60.4363C18.312 59.9492 17.6412 57.9369 16.9085 56.23C15.0799 51.9021 14.7723 44.9508 16.3595 39.952C16.7868 38.6703 18.6175 34.6478 17.8848 33.428C17.5195 32.2702 16.2997 31.5994 15.6289 30.6851C14.7798 29.4539 14.0454 28.1475 13.435 26.7822C11.9696 23.3642 11.239 19.5874 9.6539 16.1737C8.92118 14.5886 7.64158 12.9438 6.60551 11.474C5.44768 9.827 4.16594 8.66916 3.25164 6.71665C2.94829 6.04801 2.52105 4.94999 3.00811 4.21727C3.12988 3.73021 3.37341 3.54649 3.8626 3.42472C4.65514 2.75395 6.911 3.60844 7.70781 3.97374C9.96366 4.88804 11.8521 5.74252 13.7426 7.02212C14.5971 7.63094 15.5114 8.79093 16.6073 9.09641H17.8891C19.8394 9.52365 22.0333 9.21818 23.8705 9.76505C27.1026 10.8011 30.0271 12.3285 32.6504 13.9734C40.7208 19.1189 47.2814 26.3135 51.6628 34.8229C52.3955 36.2243 52.6988 37.5061 53.3717 38.9694C54.6535 41.9601 56.2386 45.0042 57.5182 47.9415C58.7999 50.8083 60.0175 53.735 61.8461 56.1126C62.7605 57.3943 66.4198 58.0629 68.0647 58.7337C69.2845 59.2827 71.175 59.7698 72.2731 60.4427C74.3452 61.7244 76.4173 63.1877 78.3698 64.5891C79.344 65.3197 82.3923 66.8449 82.5761 68.0626H82.5675Z" fill="white"/>
</svg>
