<svg width="70" height="53" viewBox="0 0 70 53" fill="none" xmlns="http://www.w3.org/2000/svg">
<path d="M10.5664 35.1137V43.7779C10.5664 45.859 10.5239 47.9431 10.5664 50.0212C10.5937 51.0284 10.2205 51.3318 9.24065 51.3105C6.59122 51.2559 3.94279 51.2559 1.29539 51.3105C0.288207 51.3318 0.00303962 50.9799 0.00607331 50C0.0394439 42.7373 0.0242932 35.4716 0.0242932 28.2059C0.0242932 19.39 0.0424717 10.5741 0 1.75822C0 0.623623 0.303381 0.28385 1.45315 0.274749C6.10683 0.241379 10.7575 0.0411524 15.4081 0.0017144C18.8605 -0.0286225 22.2673 0.338454 25.5619 1.51856C32.597 4.02439 36.7016 10.0463 36.6683 17.5091C36.6197 27.6174 30.0912 33.4209 21.5422 34.6313C18.4903 35.0621 15.3626 34.9771 12.2713 35.1167C11.7647 35.1349 11.2398 35.1137 10.5664 35.1137ZM10.6877 25.8943C12.8932 25.8943 15.0228 26.0763 17.1009 25.8397C18.8584 25.6349 20.5741 25.1623 22.1884 24.4381C25.3101 23.0214 26.2839 20.2668 26.108 17.0329C25.9441 13.9992 24.4758 11.7967 21.6697 10.5923C18.1324 9.07548 14.4192 9.60031 10.6877 9.64278V25.8943Z" fill="white"/>
<path d="M41.9711 40.6077C44.9168 41.4996 47.6744 42.5431 50.5261 43.1317C52.4495 43.5261 54.5033 43.3228 56.4964 43.2985C57.1006 43.2583 57.6896 43.0919 58.2256 42.8101C59.6757 42.1154 60.0185 40.4378 58.8323 39.3547C58.0025 38.6481 57.076 38.0638 56.0808 37.6195C53.3505 36.3059 50.517 35.235 47.8898 33.7667C43.5699 31.3397 41.3735 27.5871 42.0682 22.5572C42.769 17.4758 46.012 14.4421 50.7112 12.9101C54.4214 11.6966 58.2529 11.8361 62.0602 12.3246C63.7348 12.54 65.376 13.0284 67.0263 13.4106C67.715 13.5684 68.0123 14.0386 68.0092 14.7363C68.0092 17.1936 68.0305 19.654 68.0092 22.1112C68.0092 23.0578 67.5846 23.2883 66.6411 22.8272C63.5892 21.3286 60.328 20.7886 56.9788 20.7036C55.9589 20.7185 54.943 20.8323 53.9451 21.0434C53.49 21.1058 53.066 21.3095 52.7329 21.6257C52.3998 21.9419 52.1744 22.3548 52.0884 22.806C51.9715 23.2344 52.0023 23.6897 52.1756 24.0986C52.3489 24.5075 52.6549 24.8461 53.0441 25.06C54.7035 26.0186 56.4509 26.8286 58.1771 27.6659C60.2127 28.6519 62.318 29.5074 64.3021 30.5874C68.437 32.8384 70.3695 36.3726 69.9417 41.0839C69.5473 45.5586 67.1447 48.6682 63.1524 50.5491C59.8578 52.1053 56.3235 52.4421 52.7407 52.2934C49.3673 52.1539 46.0393 51.711 42.8934 50.361C42.2411 50.0819 41.8194 49.73 41.8255 48.9503C41.8467 46.3413 41.8254 43.7293 41.8436 41.1203C41.8568 40.9435 41.9 40.7701 41.9711 40.6077Z" fill="white"/>
</svg>
