<svg width="94" height="88" viewBox="0 0 94 88" fill="none" xmlns="http://www.w3.org/2000/svg">
<path d="M0.00704589 38.8822C0.254923 37.4657 0.43198 36.0139 0.761302 34.6045C1.5793 31.0953 3.03115 27.9012 5.71884 25.3764C7.75363 23.3808 10.4755 22.2403 13.3252 22.1894C17.6878 22.0973 22.054 22.0761 26.4272 22.069C34.2176 22.0525 42.0081 22.0525 49.7985 22.069H50.9352V19.8381H25.4995C25.4109 19.6859 25.3543 19.6363 25.3578 19.5867C25.4676 15.7127 25.6127 11.8388 25.6836 7.9648C25.719 6.09156 26.7211 5.03987 28.2792 4.21834C31.7282 2.40883 35.411 1.38545 39.2177 0.740974C44.6072 -0.158465 50.0074 -0.321362 55.4005 0.712639C57.8815 1.13607 60.2675 1.99695 62.4473 3.25515C65.181 4.88759 66.4523 7.4549 67.1074 10.4188C68.2866 15.7729 68.3149 21.1766 67.7518 26.6016C67.4459 30.1344 66.6215 33.603 65.3049 36.8956C64.0549 39.8807 61.9019 41.5628 58.7079 42.2072C54.0336 43.1563 49.3523 42.7561 44.6674 42.6216C40.9138 42.5118 37.1638 42.2285 33.4209 42.8588C27.2452 43.8999 23.9732 46.8178 22.6347 52.9191C21.8344 56.5487 21.367 60.2527 20.7508 63.9213C20.7013 64.2187 20.6552 64.5162 20.595 64.8986C18.1826 64.946 15.7835 64.5313 13.527 63.6769C7.58856 61.4212 3.90582 56.9807 1.84135 51.1627C1.0269 48.8751 0.711758 46.4105 0.17351 44.0274C0.113312 43.7689 0.0566576 43.5068 0 43.2483L0.00704589 38.8822ZM34.855 16.3289C35.917 16.3217 36.9529 15.9991 37.8312 15.402C38.7094 14.8048 39.3904 13.9602 39.7877 12.9752C40.1849 11.9903 40.2804 10.9095 40.0621 9.87015C39.8438 8.8308 39.3216 7.87977 38.5617 7.13784C37.8018 6.39591 36.8386 5.89656 35.7943 5.7032C34.75 5.50984 33.6718 5.63118 32.6967 6.05185C31.7215 6.47251 30.8934 7.17351 30.3174 8.0658C29.7415 8.95809 29.4437 10.0014 29.4619 11.0633C29.4988 12.4702 30.0828 13.8074 31.0898 14.7906C32.0969 15.7738 33.4476 16.3257 34.855 16.3289Z" fill="white"/>
<path d="M71.6683 23.057C75.7406 23.057 79.5366 23.9139 82.9573 26.0705C88.1309 29.3283 90.9744 34.215 92.3271 40.0189C93.6798 45.8227 93.3894 51.5735 91.0983 57.1295C89.8306 60.189 87.9574 62.7952 85.0005 64.4666C83.3485 65.3786 81.4872 65.8436 79.6004 65.8158C74.9651 65.8158 70.3263 65.8866 65.691 65.8937C58.0516 65.9078 50.4146 65.9078 42.78 65.8937H41.5548V68.1352H67.2136C67.2136 69.1975 67.2561 70.1572 67.2136 71.1133C67.0188 74.5835 66.817 78.0573 66.5443 81.5241C66.4451 82.0108 66.1623 82.4407 65.7547 82.7245C62.4119 85.1395 58.5308 86.2302 54.5684 87.0022C49.6108 87.9654 44.5789 88.3655 39.5612 87.5935C36.9968 87.1924 34.4762 86.5498 32.0328 85.6743C28.3819 84.3676 26.2714 81.5772 25.4959 77.8024C23.7581 69.6779 24.0819 61.2475 26.4378 53.2803C26.9351 51.7893 27.5942 50.3573 28.4032 49.0097C29.5115 47.0161 31.4945 46.2972 33.5767 45.8227C36.6114 45.1428 39.6886 45.0331 42.7836 45.1145C47.3268 45.2562 51.87 45.3907 56.4133 45.3659C58.9697 45.3789 61.4944 44.7996 63.7893 43.6733C67.5429 41.7859 69.271 38.4714 69.9898 34.5656C70.6166 31.1767 71.0132 27.7454 71.509 24.3318C71.5656 23.9458 71.601 23.5315 71.6683 23.057ZM51.4415 76.0141C51.4383 76.7197 51.5743 77.4189 51.8419 78.0718C52.1094 78.7246 52.5031 79.3183 53.0005 79.8186C53.4979 80.319 54.0892 80.7163 54.7405 80.9877C55.3917 81.2591 56.0901 81.3992 56.7957 81.4001C58.2147 81.4062 59.5781 80.8484 60.5859 79.8493C61.5936 78.8502 62.1632 77.4917 62.1693 76.0726C62.1754 74.6535 61.6176 73.2901 60.6184 72.2824C59.6193 71.2746 58.2608 70.7051 56.8417 70.699C56.1365 70.6872 55.436 70.816 54.781 71.0779C54.1261 71.3398 53.5299 71.7295 53.0272 72.2243C52.5245 72.7191 52.1254 73.309 51.8531 73.9597C51.5809 74.6104 51.441 75.3088 51.4415 76.0141Z" fill="white"/>
</svg>
