<svg width="23" height="24" viewBox="0 0 23 24" fill="none" xmlns="http://www.w3.org/2000/svg">
<path fill-rule="evenodd" clip-rule="evenodd" d="M19.527 3.48755C18.4704 2.37759 17.2152 1.49802 15.8335 0.899491C14.4519 0.30096 12.9711 -0.00471772 11.4765 5.5039e-05C5.20407 5.5039e-05 0.097959 5.33469 0.095408 11.8929C0.0926332 13.9812 0.616884 16.0329 1.61479 17.8393L0 24L6.03315 22.3463C7.70316 23.2962 9.5726 23.7934 11.4719 23.7927H11.4765C17.7484 23.7927 22.854 18.4575 22.8571 11.8998C22.8609 10.3359 22.5684 8.78671 21.9967 7.3425C21.425 5.8983 20.5855 4.5879 19.527 3.48755ZM11.4765 21.7854H11.4724C9.77926 21.7859 8.11688 21.3101 6.65815 20.4075L6.31274 20.1932L2.73265 21.1747L3.68826 17.527L3.46326 17.152C2.51652 15.5782 2.01492 13.7544 2.01683 11.8929C2.01683 6.44308 6.26224 2.00898 11.4801 2.00898C13.9831 2.00429 16.3855 3.04373 18.1587 4.89868C19.9319 6.75363 20.9308 9.27218 20.9357 11.9004C20.9336 17.3507 16.6903 21.7854 11.4765 21.7854ZM16.6648 14.3823C16.3806 14.2334 14.9811 13.5145 14.7219 13.4154C14.4627 13.3163 14.2714 13.2665 14.0821 13.5643C13.8928 13.8622 13.3474 14.5286 13.1816 14.7295C13.0158 14.9304 12.85 14.9523 12.5658 14.8034C12.2816 14.6545 11.3648 14.3411 10.2786 13.3286C9.43315 12.5406 8.86274 11.5677 8.69693 11.2704C8.53111 10.9731 8.67907 10.8118 8.82141 10.664C8.94947 10.5306 9.1056 10.3168 9.24794 10.1432C9.39029 9.96968 9.43774 9.84539 9.53213 9.64718C9.62651 9.44896 9.57958 9.27539 9.50866 9.127C9.43774 8.97861 8.86886 7.51557 8.63213 6.9204C8.40101 6.34075 8.16682 6.41951 7.99233 6.4104C7.82652 6.40183 7.63519 6.39968 7.44693 6.39968C7.303 6.40362 7.1614 6.43866 7.03095 6.50263C6.90051 6.5666 6.78402 6.65811 6.68877 6.77147C6.42805 7.06932 5.69336 7.78932 5.69336 9.25075C5.69336 10.7122 6.71376 12.1265 6.85458 12.3247C6.9954 12.5229 8.85968 15.5245 11.7122 16.8118C12.2419 17.05 12.7831 17.2588 13.3337 17.4375C14.0148 17.6636 14.6347 17.632 15.1245 17.5554C15.6709 17.4702 16.8081 16.8364 17.0444 16.1422C17.2806 15.4479 17.2811 14.8532 17.2102 14.7295C17.1393 14.6057 16.9495 14.5307 16.6648 14.3823Z" fill="white"/>
</svg>
